{
  "accessors": [
    {
      "bufferView": 0,
      "byteOffset": 0,
      "componentType": 5123,
      "count": 235008,
      "max": [
        40705.0
      ],
      "min": [
        0.0
      ],
      "name": "buffer-0-group-0-mesh-0-indices",
      "type": "SCALAR"
    },
    {
      "bufferView": 1,
      "byteOffset": 0,
      "componentType": 5126,
      "count": 40706,
      "max": [
        3.0297999382019043,
        1.0556000471115112,
        14.117300033569336
      ],
      "min": [
        -2.9784998893737793,
        -1.0556000471115112,
        -0.2176000028848648
      ],
      "name": "buffer-0-group-0-mesh-0-position",
      "type": "VEC3"
    },
    {
      "bufferView": 1,
      "byteOffset": 488472,
      "componentType": 5126,
      "count": 40706,
      "max": [
        0.9999983906745911,
        1.0,
        0.9999955296516418
      ],
      "min": [
        -0.9999991655349731,
        -1.0,
        -0.9999775290489197
      ],
      "name": "buffer-0-group-0-mesh-0-normal",
      "type": "VEC3"
    },
    {
      "bufferView": 2,
      "byteOffset": 0,
      "componentType": 5126,
      "count": 40706,
      "max": [
        0.9778000116348267,
        -0.012199999764561653
      ],
      "min": [
        0.01679999940097332,
        -0.9865000247955322
      ],
      "name": "buffer-0-group-0-mesh-0-texcoord",
      "type": "VEC2"
    }
  ],
  "asset": {
    "generator": "Obj2GltfConverter",
    "version": "2.0"
  },
  "bufferViews": [
    {
      "buffer": 0,
      "byteLength": 470016,
      "byteOffset": 0,
      "name": "buffer-0-bufferview-ushort",
      "target": 34963
    },
    {
      "buffer": 0,
      "byteLength": 976944,
      "byteOffset": 470016,
      "byteStride": 12,
      "name": "buffer-0-bufferview-vec3",
      "target": 34962
    },
    {
      "buffer": 0,
      "byteLength": 325648,
      "byteOffset": 1446960,
      "byteStride": 8,
      "name": "buffer-0-bufferview-vec2",
      "target": 34962
    }
  ],
  "buffers": [
    {
      "byteLength": 1772608,
      "name": "buffer-0",
      "uri": "10044_SeaHorse_v1_iterations-2.bin"
    }
  ],
  "images": [
    {
      "mimeType": "image/jpeg",
      "name": "_10044_SeaHorse_v1_iterations_210044_SeaHorse_v1-diffuse-image",
      "uri": "10044_SeaHorse_v1_Diffuse.jpg"
    }
  ],
  "materials": [
    {
      "alphaMode": "OPAQUE",
      "doubleSided": true,
      "name": "_10044_SeaHorse_v1_iterations_210044_SeaHorse_v1",
      "pbrMetallicRoughness": {
        "baseColorFactor": [
          0.588,
          0.588,
          0.588,
          1.0
        ],
        "baseColorTexture": {
          "index": 0,
          "texCoord": 0
        },
        "metallicFactor": 0.0,
        "roughnessFactor": 0.8582186230066646
      }
    }
  ],
  "meshes": [
    {
      "name": "buffer-0-mesh-0",
      "primitives": [
        {
          "attributes": {
            "POSITION": 1,
            "NORMAL": 2,
            "TEXCOORD_0": 3
          },
          "indices": 0,
          "material": 0,
          "mode": 4
        }
      ]
    }
  ],
  "nodes": [
    {
      "mesh": 0,
      "name": "node-0"
    }
  ],
  "samplers": [
    {
      "name": "_10044_SeaHorse_v1_iterations_210044_SeaHorse_v1-diffuse-sampler",
      "wrapS": 10497,
      "wrapT": 10497
    }
  ],
  "scenes": [
    {
      "name": "scene-0",
      "nodes": [
        0
      ]
    }
  ],
  "textures": [
    {
      "name": "_10044_SeaHorse_v1_iterations_210044_SeaHorse_v1-diffuse-texture",
      "sampler": 0,
      "source": 0
    }
  ]
}